<?xml version="1.0" encoding="UTF-8" standalone="no"?>
<svg
   xmlns:dc="http://purl.org/dc/elements/1.1/"
   xmlns:cc="http://creativecommons.org/ns#"
   xmlns:rdf="http://www.w3.org/1999/02/22-rdf-syntax-ns#"
   xmlns:svg="http://www.w3.org/2000/svg"
   xmlns="http://www.w3.org/2000/svg"
   xmlns:sodipodi="http://sodipodi.sourceforge.net/DTD/sodipodi-0.dtd"
   xmlns:inkscape="http://www.inkscape.org/namespaces/inkscape"
   version="1.1"
   x="0px"
   y="0px"
   viewBox="0 0 32 40"
   enable-background="new 0 0 32 32"
   xml:space="preserve"
   id="svg3462"
   inkscape:version="0.91 r13725"
   sodipodi:docname="data-stream-icon.svg"><metadata
     id="metadata3532"><rdf:RDF><cc:Work
         rdf:about=""><dc:format>image/svg+xml</dc:format><dc:type
           rdf:resource="http://purl.org/dc/dcmitype/StillImage" /></cc:Work></rdf:RDF></metadata><defs
     id="defs3530" /><sodipodi:namedview
     pagecolor="#ffffff"
     bordercolor="#666666"
     borderopacity="1"
     objecttolerance="10"
     gridtolerance="10"
     guidetolerance="10"
     inkscape:pageopacity="0"
     inkscape:pageshadow="2"
     inkscape:window-width="1726"
     inkscape:window-height="1139"
     id="namedview3528"
     showgrid="false"
     inkscape:zoom="19.36975"
     inkscape:cx="10.838149"
     inkscape:cy="23.012314"
     inkscape:window-x="0"
     inkscape:window-y="0"
     inkscape:window-maximized="0"
     inkscape:current-layer="g3470" /><g
     display="none"
     id="g3464"><rect
       x="-378"
       y="-57.016"
       display="inline"
       fill="#000000"
       width="436.111"
       height="216"
       id="rect3466" /></g><g
     id="g3470"
     transform="translate(0,0.05162689)"><polygon
       id="polygon3472"
       points="13.287,18.222 14.287,18.222 14.287,11.275 16.667,13.638 17.372,12.929 13.787,9.37 10.202,12.929 10.907,13.638 13.287,11.275 " /><path
       inkscape:connector-curvature="0"
       id="path3474"
       d="m 23.88,11.369 -0.37,0 C 23.142,9.831 21.746,8.678 20.076,8.678 19.67,8.678 19.259,8.767 18.92,8.879 18.103,6.578 15.891,4.925 13.283,4.925 c -3.302,0 -5.979,2.645 -5.979,5.907 0,0.205 0.011,0.409 0.032,0.608 -2.171,0.37 -3.836,2.247 -3.836,4.492 0,2.51 2.079,4.564 4.62,4.564 l 11.905,0 0,4.673 -2.38,-2.363 -0.705,0.709 3.585,3.559 3.585,-3.559 -0.705,-0.709 -2.38,2.363 0,-4.673 2.856,0 c 2.541,0 4.62,-2.054 4.62,-4.564 -0.001,-2.509 -2.08,-4.563 -4.621,-4.563 z m 0,8.127 -2.856,0 0,-1.275 -1,0 0,1.275 -11.904,0 c -1.996,0 -3.62,-1.599 -3.62,-3.564 0,-1.735 1.263,-3.209 3.004,-3.507 L 8.427,12.267 8.331,11.336 C 8.314,11.17 8.305,11.001 8.305,10.831 c 0,-2.706 2.233,-4.907 4.979,-4.907 2.11,0 3.996,1.322 4.694,3.289 l 0.328,0.923 0.93,-0.309 c 0.292,-0.097 0.591,-0.15 0.842,-0.15 1.178,0 2.19,0.791 2.461,1.924 l 0.184,0.767 0.789,0 0.37,0 c 1.996,0 3.62,1.599 3.62,3.563 -0.002,1.966 -1.626,3.565 -3.622,3.565 z" /><path
       inkscape:connector-curvature="0"
       id="path3476"
       d="M 0,32 32,32 32,0 0,0 0,32 Z M 1,1 31,1 31,31 1,31 1,1 Z" /></g><g
     display="none"
     id="g3478"><g
       display="inline"
       id="g3480"><path
         d="M0,32h32V0H0V32z M7.336,11.44c-0.021-0.199-0.032-0.403-0.032-0.608c0-3.262,2.677-5.907,5.979-5.907    c2.608,0,4.82,1.653,5.637,3.954c0.34-0.113,0.751-0.201,1.156-0.201c1.67,0,3.066,1.153,3.434,2.691h0.37    c2.541,0,4.62,2.054,4.62,4.563c0,2.51-2.079,4.564-4.62,4.564h-2.856v4.673l2.38-2.363l0.705,0.709l-3.585,3.559l-3.585-3.559    l0.705-0.709l2.38,2.363v-4.673H8.12c-2.541,0-4.62-2.054-4.62-4.564C3.5,13.687,5.165,11.81,7.336,11.44z"
         id="path3482" /><path
         d="M8.12,19.496h11.905v-1.275h1v1.275h2.856c1.996,0,3.62-1.599,3.62-3.564c0-1.965-1.624-3.563-3.62-3.563h-0.37h-0.789    l-0.184-0.767c-0.271-1.133-1.283-1.924-2.461-1.924c-0.25,0-0.549,0.053-0.842,0.15l-0.93,0.309l-0.328-0.923    c-0.698-1.967-2.585-3.289-4.694-3.289c-2.745,0-4.979,2.201-4.979,4.907c0,0.17,0.009,0.339,0.026,0.505l0.096,0.931    l-0.923,0.158C5.763,12.723,4.5,14.198,4.5,15.932C4.5,17.897,6.124,19.496,8.12,19.496z M13.787,9.37l3.585,3.559l-0.705,0.709    l-2.38-2.363v6.947h-1v-6.947l-2.38,2.363l-0.705-0.709L13.787,9.37z"
         id="path3484" /></g></g><g
     display="none"
     id="g3486"><line
       display="inline"
       fill="none"
       stroke="#000000"
       stroke-width="2"
       stroke-miterlimit="10"
       x1="20.242"
       y1="18.075"
       x2="20.242"
       y2="25.518"
       id="line3488" /><polyline
       display="inline"
       fill="none"
       stroke="#000000"
       stroke-width="2"
       stroke-miterlimit="10"
       points="23.272,22.686    20.242,25.682 17.211,22.686  "
       id="polyline3490" /><line
       display="inline"
       fill="none"
       stroke="#000000"
       stroke-width="2"
       stroke-miterlimit="10"
       x1="13.925"
       y1="17.774"
       x2="13.925"
       y2="10.33"
       id="line3492" /><polyline
       display="inline"
       fill="none"
       stroke="#000000"
       stroke-width="2"
       stroke-miterlimit="10"
       points="10.895,13.163    13.925,10.166 16.956,13.163  "
       id="polyline3494" /><path
       display="inline"
       fill="none"
       stroke="#000000"
       stroke-width="2"
       stroke-miterlimit="10"
       d="M23.388,11.676h-0.347   c-0.345-1.436-1.654-2.512-3.219-2.512c-0.38,0-0.766,0.083-1.084,0.188c-0.766-2.148-2.84-3.692-5.284-3.692   c-3.095,0-5.605,2.469-5.605,5.514c0,0.192,0.01,0.381,0.03,0.568c-2.035,0.346-3.596,2.098-3.596,4.194   c0,2.343,1.949,4.261,4.331,4.261h14.776c2.382,0,4.331-1.917,4.331-4.261C27.719,13.594,25.77,11.676,23.388,11.676z"
       id="path3496" /><g
       display="inline"
       id="g3498"><path
         d="M30,2v28H2V2H30 M32,0H0v32h32V0L32,0z"
         id="path3500" /></g></g><g
     display="none"
     id="g3502"><g
       display="inline"
       id="g3504"><line
         fill="#000000"
         stroke="#1A1718"
         stroke-width="0.5"
         stroke-miterlimit="10"
         x1="20.524"
         y1="18.222"
         x2="20.524"
         y2="26.195"
         id="line3506" /><polyline
         fill="#000000"
         stroke="#1A1718"
         stroke-width="0.5"
         stroke-miterlimit="10"
         points="23.757,23.161 20.524,26.37     17.292,23.161   "
         id="polyline3508" /></g><g
       display="inline"
       id="g3510"><line
         fill="#000000"
         stroke="#1A1718"
         stroke-width="0.5"
         stroke-miterlimit="10"
         x1="13.787"
         y1="18.222"
         x2="13.787"
         y2="10.249"
         id="line3512" /><polyline
         fill="#000000"
         stroke="#1A1718"
         stroke-width="0.5"
         stroke-miterlimit="10"
         points="10.554,13.283 13.787,10.074     17.019,13.283   "
         id="polyline3514" /></g><g
       display="inline"
       id="g3516"><path
         fill="#000000"
         d="M13.283,5.425c2.321,0,4.397,1.455,5.166,3.621l0.164,0.462l0.465-0.154    c0.242-0.08,0.612-0.176,0.999-0.176c1.41,0,2.623,0.949,2.948,2.308l0.092,0.384h0.394h0.37c2.272,0,4.12,1.823,4.12,4.063    c0,2.241-1.848,4.064-4.12,4.064H8.12c-2.272,0-4.12-1.823-4.12-4.064c0-1.979,1.438-3.661,3.42-4l0.461-0.079l-0.048-0.465    c-0.019-0.183-0.029-0.369-0.029-0.556C7.804,7.85,10.262,5.425,13.283,5.425 M13.283,4.925c-3.302,0-5.979,2.645-5.979,5.907    c0,0.205,0.011,0.408,0.032,0.608C5.165,11.811,3.5,13.687,3.5,15.932c0,2.51,2.079,4.564,4.62,4.564H23.88    c2.541,0,4.62-2.054,4.62-4.564c0-2.509-2.079-4.563-4.62-4.563h-0.37c-0.368-1.538-1.764-2.691-3.434-2.691    c-0.406,0-0.817,0.089-1.156,0.201C18.103,6.578,15.891,4.925,13.283,4.925L13.283,4.925z"
         id="path3518" /></g><g
       display="inline"
       id="g3520"><path
         d="M31.5,0.5v31h-31v-31H31.5 M32,0H0v32h32V0L32,0z"
         id="path3522" /></g></g><path
     style="fill:#80e5ff"
     d="M 7.4669129,19.407249 C 6.9654819,19.314143 6.580393,19.158427 6.1397269,18.870585 5.4106512,18.394354 4.8810545,17.667241 4.6500951,16.825386 4.5010307,16.282042 4.5245303,15.350701 4.7002597,14.837251 4.8713695,14.337298 5.1972335,13.823108 5.5827647,13.444722 6.1855,12.853158 6.797289,12.572042 7.8987746,12.380522 L 8.43389,12.287479 8.3892301,11.76833 C 8.3174724,10.934185 8.344445,10.220483 8.4669956,9.7106307 8.8832742,7.97877 10.263667,6.584495 12.035919,6.1058166 c 0.637657,-0.1722288 1.845059,-0.1733303 2.478065,-0.00226 0.603475,0.1630888 1.287755,0.4989014 1.788926,0.8779208 0.826937,0.6253857 1.362682,1.4073837 1.774285,2.589831 0.0939,0.2697505 0.187545,0.5098943 0.208103,0.5336523 0.02056,0.02376 0.301371,-0.04562 0.62403,-0.1541795 0.549541,-0.1848907 0.62584,-0.1974204 1.206174,-0.1980774 0.609397,-6.897e-4 0.626111,0.00244 1.02265,0.1917887 0.476669,0.2276052 0.933959,0.6545592 1.143089,1.0672582 0.07617,0.150313 0.202975,0.52078 0.281791,0.82326 l 0.143301,0.549963 0.950354,0.02732 c 0.864685,0.02486 0.988725,0.04036 1.376012,0.17194 1.145385,0.389147 2.04146,1.360214 2.336753,2.532316 0.395746,1.570828 -0.386651,3.215428 -1.888344,3.969303 -0.682081,0.342416 -0.792158,0.358104 -2.693915,0.383934 l -1.716594,0.02332 0,-0.650052 0,-0.650051 -0.542082,0 -0.542083,0 0,0.645336 0,0.645336 -6.079066,-0.0047 c -4.7513861,-0.0036 -6.1579947,-0.01931 -6.4404551,-0.07176 z m 6.8531041,-4.595668 0.01327,-3.433044 1.178665,1.143956 1.178665,1.143956 0.362585,-0.362586 0.362585,-0.362585 -1.790792,-1.775332 C 14.640061,10.189513 13.818722,9.3860527 13.799799,9.3804784 13.780876,9.374904 12.95227,10.169683 11.958453,11.146653 l -1.806942,1.77631 0.374307,0.375909 0.374308,0.375908 1.187406,-1.186565 1.187406,-1.186564 0,3.471487 0,3.471488 0.515903,0 0.515903,0 0.01327,-3.433045 z"
     id="path4349"
     inkscape:connector-curvature="0" /></svg>